<svg xmlns="http://www.w3.org/2000/svg" xmlns:xlink="http://www.w3.org/1999/xlink" xmlns:inkscape="http://www.inkscape.org/namespaces/inkscape" version="1.1" width="360" height="72" viewBox="0 0 360 72">
<defs>
<clipPath id="clip_1">
<path transform="matrix(1,0,0,-1,0,72)" d="M0 0H360V72H0Z" clip-rule="evenodd"/>
</clipPath>
</defs>
<g clip-path="url(#clip_1)">
<g inkscape:groupmode="layer" inkscape:label="Layer 1">
<path transform="matrix(1,0,0,-1,0,72)" d="M192.1541 49.0683H208.1985C211.8915 49.0683 214.3477 50.9258 214.5617 54.7526H200.2552C196.3397 54.7526 192.4415 53.6769 192.1541 49.0683ZM214.5623 44.0889 199.9996 44.1808C193.989 44.2188 192.1368 41.8252 192.1368 35.5856V28.7685H208.1985C211.8915 28.7685 214.3477 30.6261 214.5617 34.4531H200.2552C199.5562 34.4531 198.8549 34.4171 198.1602 34.3304L197.5657 34.2556V38.4015H208.1985C211.8923 38.4015 214.3491 40.2599 214.5623 44.0889" fill="#2b2a29" fill-rule="evenodd"/>
<path transform="matrix(1,0,0,-1,0,72)" d="M132.7113 28.7685V54.6491H126.775V37.8266L114.4843 54.6491H108.5479V28.7685H114.4843V45.7019L126.775 28.7685Z" fill="#2b2a29"/>
<path transform="matrix(1,0,0,-1,0,72)" d="M152.4824 41.7458 161.763 54.6491H154.698L149.4306 46.1455 144.163 54.6491H137.0979L146.3369 41.7458 137.0979 28.7685H144.1213L149.4306 37.3462 154.7396 28.7685H161.763Z" fill="#2b2a29"/>
<path transform="matrix(1,0,0,-1,0,72)" d="M180.2577 49.621H188.4932V54.6491H166.0856V49.621H174.3214V28.7685H180.2577Z" fill="#2b2a29"/>
<path transform="matrix(1,0,0,-1,0,72)" d="M236.6101 38.3074C240.1217 39.4534 242.5884 42.1894 242.5884 46.1823 242.5884 51.5066 238.1987 54.6491 232.6805 54.6491H221.0168V28.7685H226.9531V37.7158H230.8411L236.2757 28.7685H242.839ZM232.806 49.7319C235.0633 49.7319 236.7357 48.401 236.7357 46.1823 236.7357 43.9642 235.0633 42.6331 232.806 42.6331H226.9531V49.7319Z" fill="#2b2a29"/>
<path transform="matrix(1,0,0,-1,0,72)" d="M263.3462 54.6491H257.8277L246.206 28.7685H252.5187L254.5671 33.5378H266.6069L268.6552 28.7685H274.968ZM260.587 48.2899 264.6003 38.1966H256.5317Z" fill="#2b2a29"/>
<path transform="matrix(1,0,0,-1,0,72)" d="M117.9493 12.1898H117.4771L114.9018 19.8944 112.464 12.1898H111.9915L108.5477 23.5199H110.1019L112.2962 15.7218 114.6883 23.5199H115.2065L117.5683 15.7374 119.793 23.5199H121.3472ZM127.351 12.346V17.4875C127.351 18.0969 127.2138 18.5817 126.9088 18.9255 126.6194 19.2849 126.2081 19.4567 125.6749 19.4567 125.3395 19.4567 125.0042 19.3473 124.6538 19.1443 124.3035 18.9411 124.0444 18.7067 123.8613 18.4252V12.346H122.4445V23.8637H123.8613V19.6285C124.0444 19.9256 124.3491 20.1756 124.7757 20.3788 125.187 20.5821 125.6289 20.6756 126.0711 20.6756 126.9088 20.6756 127.5795 20.3944 128.052 19.8162 128.524 19.2535 128.768 18.472 128.768 17.4875V12.346ZM137.4837 16.2842H131.7393C131.7393 15.3309 131.9984 14.5964 132.5013 14.0808 132.9585 13.6276 133.5373 13.4087 134.2383 13.4087 135.0459 13.4087 135.7316 13.6587 136.2651 14.1432L136.859 13.0961C136.6458 12.8772 136.3107 12.6743 135.8535 12.5178 135.2897 12.299 134.6649 12.1898 133.9639 12.1898 132.9585 12.1898 132.1203 12.5337 131.4193 13.2367 130.6423 14.0026 130.2463 15.0341 130.2463 16.3312 130.2463 17.6907 130.6423 18.7693 131.4499 19.5817 132.1659 20.3162 133.0041 20.6756 133.9792 20.6756 135.1222 20.6756 136.006 20.3474 136.6611 19.6911 137.2859 19.0502 137.5906 18.2222 137.5906 17.1751 137.5906 16.8469 137.56 16.5498 137.4837 16.2842ZM134.0555 19.4567C133.4157 19.4567 132.8973 19.2535 132.4706 18.8314 132.0596 18.4252 131.8306 17.9252 131.7696 17.3313H136.1889C136.1889 17.9252 136.006 18.4096 135.6554 18.8158 135.2594 19.2379 134.7259 19.4567 134.0555 19.4567ZM143.3959 19.1288C143.0912 19.3473 142.7865 19.4567 142.4665 19.4567 141.9636 19.4567 141.537 19.2223 141.156 18.7534 140.775 18.269 140.5925 17.7063 140.5925 17.0345V12.346H139.1751V20.5194H140.5925V19.2223C141.1104 20.1912 141.8723 20.6756 142.8931 20.6756 143.1522 20.6756 143.5178 20.6289 143.9904 20.535ZM151.7156 16.2842H145.9712C145.9712 15.3309 146.23 14.5964 146.7332 14.0808 147.1901 13.6276 147.7692 13.4087 148.47 13.4087 149.2775 13.4087 149.9632 13.6587 150.4967 14.1432L151.0909 13.0961C150.8774 12.8772 150.5424 12.6743 150.0851 12.5178 149.5213 12.299 148.8966 12.1898 148.1956 12.1898 147.1901 12.1898 146.3519 12.5337 145.6512 13.2367 144.8739 14.0026 144.4779 15.0341 144.4779 16.3312 144.4779 17.6907 144.8739 18.7693 145.6815 19.5817 146.3978 20.3162 147.236 20.6756 148.2111 20.6756 149.3538 20.6756 150.2376 20.3474 150.8927 19.6911 151.5175 19.0502 151.8225 18.2222 151.8225 17.1751 151.8225 16.8469 151.7916 16.5498 151.7156 16.2842ZM148.2871 19.4567C147.6473 19.4567 147.1289 19.2535 146.7026 18.8314 146.2912 18.4252 146.0625 17.9252 146.0015 17.3313H150.4205C150.4205 17.9252 150.2376 18.4096 149.887 18.8158 149.491 19.2379 148.9578 19.4567 148.2871 19.4567ZM158.2523 12.346V23.5199H159.7459V12.346ZM167.0295 12.346V17.1125C167.0295 17.9722 166.9076 18.5817 166.6483 18.9411 166.3894 19.2849 165.9628 19.4567 165.3684 19.4567 165.0487 19.4567 164.698 19.3629 164.3477 19.1599 163.997 18.9567 163.7229 18.7223 163.5398 18.4252V12.346H162.1227V20.5194H163.0979L163.5398 19.4723C164.0123 20.2694 164.7743 20.6756 165.8256 20.6756 167.5777 20.6756 168.4466 19.5817 168.4466 17.4095V12.346ZM175.3492 12.346V17.1125C175.3492 17.9722 175.227 18.5817 174.9679 18.9411 174.7091 19.2849 174.2825 19.4567 173.6881 19.4567 173.3683 19.4567 173.018 19.3629 172.6673 19.1599 172.317 18.9567 172.0426 18.7223 171.8597 18.4252V12.346H170.4424V20.5194H171.4178L171.8597 19.4723C172.332 20.2694 173.094 20.6756 174.1453 20.6756 175.8977 20.6756 176.7662 19.5817 176.7662 17.4095V12.346ZM178.2442 16.4563C178.2442 17.7219 178.5796 18.7379 179.2346 19.5194 179.905 20.285 180.7739 20.6756 181.8556 20.6756 182.9985 20.6756 183.8823 20.3006 184.5068 19.5506 185.1313 18.8158 185.4516 17.7846 185.4516 16.4563 185.4516 15.1277 185.1313 14.0964 184.4915 13.3305 183.8364 12.5649 182.9679 12.1898 181.8556 12.1898 180.7126 12.1898 179.8288 12.5804 179.204 13.3461 178.564 14.112 178.2442 15.1435 178.2442 16.4563ZM179.7375 16.4563C179.7375 14.4088 180.4385 13.3773 181.8556 13.3773 182.5106 13.3773 183.0288 13.6587 183.3945 14.2058 183.7755 14.7526 183.9583 15.503 183.9583 16.4563 183.9583 18.472 183.2576 19.4879 181.8556 19.4879 181.2155 19.4879 180.6976 19.2223 180.3166 18.6752 179.9357 18.144 179.7375 17.394 179.7375 16.4563ZM189.8096 12.1898H189.4439L186.0304 20.535H187.5849L189.6877 14.8153 191.8361 20.535H193.3143ZM198.9065 13.2837C198.3424 12.5493 197.4742 12.1898 196.3159 12.1898 195.6912 12.1898 195.143 12.424 194.6857 12.8931 194.2285 13.3617 193.9997 13.9399 193.9997 14.6276 193.9997 15.4559 194.3504 16.1592 195.0664 16.7374 195.7674 17.3157 196.6666 17.5969 197.7636 17.5969 198.053 17.5969 198.3883 17.5346 198.7693 17.394 198.7693 18.7223 198.1905 19.3785 197.0476 19.3785 196.1637 19.3785 195.478 19.1288 195.0055 18.644L194.4113 19.8632C194.6857 20.082 195.0514 20.285 195.5237 20.4415 195.9959 20.5977 196.4531 20.6756 196.8797 20.6756 198.038 20.6756 198.8756 20.41 199.4091 19.8632 199.9273 19.3317 200.1864 18.472 200.1864 17.3001V14.362C200.1864 13.6431 200.3995 13.1587 200.8111 12.9243V12.2054C200.2323 12.2054 199.8057 12.2834 199.516 12.4554 199.2263 12.6272 199.0284 12.8931 198.9065 13.2837ZM198.7693 16.3624C198.3274 16.4718 198.0074 16.5186 197.8398 16.5186 197.1238 16.5186 196.5444 16.3312 196.0875 15.9562 195.6455 15.5812 195.4171 15.1277 195.4171 14.612 195.4171 13.7523 195.9043 13.3305 196.8797 13.3305 197.5958 13.3305 198.2205 13.6743 198.7693 14.3776ZM202.9136 19.3785H201.9844V20.5194H202.9136V22.2228L204.3309 22.7854V20.5194H206.5252V19.3785H204.3309V15.3153C204.3309 14.6276 204.4528 14.1432 204.6662 13.8464 204.8944 13.5493 205.2604 13.4087 205.7632 13.4087 206.1289 13.4087 206.5096 13.5026 206.8909 13.6902L207.1043 12.424C206.5252 12.2678 205.8698 12.1898 205.1688 12.1898 204.5443 12.1898 204.0111 12.424 203.5692 12.9087 203.127 13.3929 202.9136 14.0026 202.9136 14.737ZM209.9081 23.6137C210.1518 23.6137 210.365 23.5199 210.5328 23.3481 210.7003 23.1761 210.7916 22.9572 210.7916 22.7231 210.7916 22.4731 210.7003 22.2542 210.5328 22.0822 210.365 21.9104 210.1518 21.8166 209.9081 21.8166 209.6793 21.8166 209.4659 21.9104 209.2983 22.0822 209.1311 22.2542 209.0395 22.4731 209.0395 22.7231 209.0395 22.9731 209.1311 23.1761 209.2983 23.3481 209.4659 23.5355 209.6643 23.6137 209.9081 23.6137ZM209.1311 12.346V19.3005H208.0335V20.5194H210.5478V12.346ZM212.2849 16.4563C212.2849 17.7219 212.62 18.7379 213.2753 19.5194 213.9457 20.285 214.8143 20.6756 215.8963 20.6756 217.0389 20.6756 217.9227 20.3006 218.5472 19.5506 219.172 18.8158 219.4923 17.7846 219.4923 16.4563 219.4923 15.1277 219.172 14.0964 218.5322 13.3305 217.8771 12.5649 217.0086 12.1898 215.8963 12.1898 214.7533 12.1898 213.8695 12.5804 213.2447 13.3461 212.6047 14.112 212.2849 15.1435 212.2849 16.4563ZM213.7782 16.4563C213.7782 14.4088 214.4789 13.3773 215.8963 13.3773 216.5513 13.3773 217.0695 13.6587 217.4352 14.2058 217.8159 14.7526 217.999 15.503 217.999 16.4563 217.999 18.472 217.298 19.4879 215.8963 19.4879 215.2562 19.4879 214.7383 19.2223 214.3573 18.6752 213.9763 18.144 213.7782 17.394 213.7782 16.4563ZM225.8921 12.346V17.1125C225.8921 17.9722 225.7702 18.5817 225.5111 18.9411 225.252 19.2849 224.8254 19.4567 224.2312 19.4567 223.9112 19.4567 223.5609 19.3629 223.2102 19.1599 222.8598 18.9567 222.5854 18.7223 222.4026 18.4252V12.346H220.9856V20.5194H221.9607L222.4026 19.4723C222.8751 20.2694 223.6368 20.6756 224.6885 20.6756 226.4406 20.6756 227.3091 19.5817 227.3091 17.4095V12.346ZM228.7871 12.8305 229.29 14.2058C230.0672 13.6743 230.7073 13.4087 231.1795 13.4087 232.0634 13.4087 232.49 13.7837 232.49 14.5338 232.49 15.0809 232.0634 15.5497 231.2252 15.9406 230.5851 16.2374 230.1432 16.4718 229.9147 16.628 229.6862 16.7842 229.4881 16.9719 229.3356 17.1592 229.1681 17.3625 229.0309 17.5813 228.9546 17.8157 228.8786 18.0346 228.833 18.2846 228.833 18.5346 228.833 19.2067 229.0768 19.7379 229.549 20.1129 230.0213 20.4883 230.646 20.6756 231.4233 20.6756 232.0021 20.6756 232.7338 20.4883 233.6173 20.1129L233.2213 18.7693C232.6575 19.2223 232.0937 19.4567 231.5302 19.4567 231.1948 19.4567 230.9051 19.3785 230.6767 19.2067 230.4479 19.0502 230.326 18.8473 230.326 18.5973 230.326 18.0658 230.6157 17.6751 231.1948 17.394L232.2156 16.9248C232.825 16.6436 233.282 16.3001 233.5564 15.9406 233.8461 15.5653 233.983 15.0965 233.983 14.5338 233.983 13.7993 233.7392 13.2211 233.2366 12.8146 232.7338 12.3931 232.0328 12.1898 231.1489 12.1898 230.3107 12.1898 229.5337 12.4084 228.7871 12.8305ZM249.2969 12.346V17.5187C249.2969 18.8158 248.7484 19.4567 247.6667 19.4567 247.3313 19.4567 247.011 19.3473 246.7066 19.1288 246.4169 18.9099 246.2034 18.6752 246.0971 18.394V12.346H244.6798V18.1596C244.6798 18.5661 244.5276 18.8785 244.2379 19.1129 243.9485 19.3473 243.5525 19.4567 243.0646 19.4567 242.7905 19.4567 242.4855 19.3473 242.1658 19.1288 241.8457 18.894 241.617 18.644 241.4801 18.3784V12.346H240.063V20.5194H240.9922L241.4494 19.5817C241.998 20.3162 242.6837 20.6756 243.5066 20.6756 244.6495 20.6756 245.4418 20.3162 245.899 19.5817 246.0665 19.8944 246.3559 20.16 246.7826 20.3632 247.2248 20.5662 247.6667 20.6756 248.1236 20.6756 248.9465 20.6756 249.5863 20.4256 250.0432 19.9256 250.4854 19.4255 250.7139 18.7223 250.7139 17.8157V12.346ZM259.4296 16.2842H253.6855C253.6855 15.3309 253.9443 14.5964 254.4471 14.0808 254.9041 13.6276 255.4832 13.4087 256.1839 13.4087 256.9918 13.4087 257.6775 13.6587 258.2107 14.1432L258.8051 13.0961C258.5917 12.8772 258.2563 12.6743 257.7991 12.5178 257.2356 12.299 256.6108 12.1898 255.9098 12.1898 254.9041 12.1898 254.0662 12.5337 253.3652 13.2367 252.5879 14.0026 252.1919 15.0341 252.1919 16.3312 252.1919 17.6907 252.5879 18.7693 253.3958 19.5817 254.1118 20.3162 254.95 20.6756 255.9251 20.6756 257.0681 20.6756 257.9516 20.3474 258.607 19.6911 259.2315 19.0502 259.5365 18.2222 259.5365 17.1751 259.5365 16.8469 259.5059 16.5498 259.4296 16.2842ZM256.0014 19.4567C255.3613 19.4567 254.8431 19.2535 254.4165 18.8314 254.0052 18.4252 253.7768 17.9252 253.7155 17.3313H258.1345C258.1345 17.9252 257.9516 18.4096 257.6013 18.8158 257.2053 19.2379 256.6718 19.4567 256.0014 19.4567ZM267.734 16.2842H261.9896C261.9896 15.3309 262.2487 14.5964 262.7515 14.0808 263.2088 13.6276 263.7876 13.4087 264.4886 13.4087 265.2962 13.4087 265.9816 13.6587 266.5151 14.1432L267.1092 13.0961C266.8961 12.8772 266.561 12.6743 266.1038 12.5178 265.5397 12.299 264.9152 12.1898 264.2142 12.1898 263.2088 12.1898 262.3703 12.5337 261.6695 13.2367 260.8926 14.0026 260.4963 15.0341 260.4963 16.3312 260.4963 17.6907 260.8926 18.7693 261.7002 19.5817 262.4162 20.3162 263.2544 20.6756 264.2295 20.6756 265.3724 20.6756 266.256 20.3474 266.9114 19.6911 267.5361 19.0502 267.8409 18.2222 267.8409 17.1751 267.8409 16.8469 267.8102 16.5498 267.734 16.2842ZM264.3058 19.4567C263.666 19.4567 263.1475 19.2535 262.7209 18.8314 262.3099 18.4252 262.0809 17.9252 262.0199 17.3313H266.4388C266.4388 17.9252 266.256 18.4096 265.9056 18.8158 265.5094 19.2379 264.9762 19.4567 264.3058 19.4567ZM269.8214 19.3785H268.8919V20.5194H269.8214V22.2228L271.2385 22.7854V20.5194H273.4328V19.3785H271.2385V15.3153C271.2385 14.6276 271.3603 14.1432 271.5738 13.8464 271.8023 13.5493 272.1682 13.4087 272.6711 13.4087 273.0368 13.4087 273.4174 13.5026 273.7984 13.6902L274.0119 12.424C273.4328 12.2678 272.7777 12.1898 272.0767 12.1898 271.4519 12.1898 270.9187 12.424 270.4768 12.9087 270.0349 13.3929 269.8214 14.0026 269.8214 14.737ZM287.4821 12.1898C286.6133 12.1898 285.9732 12.3772 285.6076 12.7525 285.2269 13.1275 285.0287 13.7523 285.0287 14.6588V22.1448C284.9068 22.301 284.6784 22.4416 284.3736 22.551 284.0686 22.6604 283.7639 22.7231 283.4592 22.7231 283.0326 22.7231 282.6669 22.551 282.3928 22.2228 282.1031 21.8789 281.9659 21.4571 281.9659 20.9415 281.9659 20.8165 281.9812 20.6756 282.0115 20.5194H283.4133V19.3005H282.0115V12.346H280.5945V19.3005H279.4365V20.5194H280.5945C280.5945 21.5666 280.8536 22.379 281.3411 22.9731 281.844 23.567 282.5144 23.8637 283.3373 23.8637 284.0686 23.8637 284.6324 23.7387 285.0287 23.5043V23.7076H286.4458V14.8932C286.4458 13.9555 286.7961 13.487 287.4821 13.487ZM288.5944 16.4563C288.5944 17.7219 288.9298 18.7379 289.5849 19.5194 290.2552 20.285 291.1238 20.6756 292.2055 20.6756 293.3484 20.6756 294.2323 20.3006 294.857 19.5506 295.4818 18.8158 295.8015 17.7846 295.8015 16.4563 295.8015 15.1277 295.4818 14.0964 294.8417 13.3305 294.1863 12.5649 293.3181 12.1898 292.2055 12.1898 291.0628 12.1898 290.179 12.5804 289.5542 13.3461 288.9145 14.112 288.5944 15.1435 288.5944 16.4563ZM290.0877 16.4563C290.0877 14.4088 290.7887 13.3773 292.2055 13.3773 292.8609 13.3773 293.379 13.6587 293.7447 14.2058 294.1257 14.7526 294.3085 15.503 294.3085 16.4563 294.3085 18.472 293.6075 19.4879 292.2055 19.4879 291.5657 19.4879 291.0475 19.2223 290.6666 18.6752 290.2859 18.144 290.0877 17.394 290.0877 16.4563ZM304.6397 12.1898H304.274L301.9425 17.7534 299.6113 12.1898H299.2456L296.3962 20.535H297.9045L299.6113 15.1747 301.729 20.535H302.0947L304.289 15.1747 306.1174 20.535H307.5043Z" fill="#2b2a29"/>
<path transform="matrix(1,0,0,-1,0,72)" d="M308.5435 15.4913C308.8157 15.4913 309.047 15.3935 309.2511 15.1982 309.4418 14.989 309.5368 14.7518 309.5368 14.4726 309.5368 14.1934 309.4418 13.9425 309.2511 13.7472 309.047 13.5377 308.8157 13.4402 308.5435 13.4402 308.2714 13.4402 308.0404 13.5377 307.836 13.7472 307.6458 13.9425 307.5506 14.1934 307.5506 14.4726 307.5506 14.7518 307.6458 14.989 307.836 15.1982 308.0404 15.3935 308.2714 15.4913 308.5435 15.4913ZM313.5368 15.4913C313.8089 15.4913 314.0402 15.3935 314.2443 15.1982 314.4348 14.989 314.53 14.7518 314.53 14.4726 314.53 14.1934 314.4348 13.9425 314.2443 13.7472 314.0402 13.5377 313.8089 13.4402 313.5368 13.4402 313.2649 13.4402 313.0333 13.5377 312.8292 13.7472 312.639 13.9425 312.5438 14.1934 312.5438 14.4726 312.5438 14.7518 312.639 14.989 312.8292 15.1982 313.0333 15.3935 313.2649 15.4913 313.5368 15.4913ZM318.53 15.4913C318.8024 15.4913 319.0334 15.3935 319.2375 15.1982 319.428 14.989 319.5232 14.7518 319.5232 14.4726 319.5232 14.1934 319.428 13.9425 319.2375 13.7472 319.0334 13.5377 318.8024 13.4402 318.53 13.4402 318.2579 13.4402 318.0266 13.5377 317.8225 13.7472 317.632 13.9425 317.537 14.1934 317.537 14.4726 317.537 14.7518 317.632 14.989 317.8225 15.1982 318.0266 15.3935 318.2579 15.4913 318.53 15.4913" fill="#2b2a29"/>
<path transform="matrix(1,0,0,-1,0,72)" d="M75.5861 25.2156H95.7835V15.5489H82.3082ZM65.5832 55.0151H74.802 95.6716V45.3481H74.802V40.227H93.4946V30.5609H74.802V25.6955L65.2314 38.5951V55.0151Z" fill="#1cb0c8" fill-rule="evenodd"/>
<path transform="matrix(1,0,0,-1,0,72)" d="M40.0723 55.0636H48.9708L77.8586 15.6135H66.0793L49.6746 38.0191C49.6746 38.0191 49.4507 15.6455 49.6746 15.6455 49.8988 15.6455 40.2318 15.6455 40.2318 15.6455Z" fill="#2b2a29" fill-rule="evenodd"/>
<path transform="matrix(1,0,0,-1,0,72)" d="M303.0582 52.2819V58.513H300.8375V59.7804H306.7863V58.513H304.5767V52.2819ZM307.7478 52.2819V59.7804H310.0224L311.3663 54.6664 312.6946 59.7804H314.9745V52.2819H313.5711L313.5657 58.1851 312.0871 52.2819H310.6278L309.1567 58.1851 309.1516 52.2819Z" fill="#2b2a29"/>
<path transform="matrix(1,0,0,-1,0,72)" d="M294.2402 54.6491H288.7217L277.0999 28.7685H283.4124L285.4607 33.5378H297.5009L299.5492 28.7685H305.862ZM291.4809 48.2899 295.4942 38.1966H287.4257Z" fill="#2b2a29"/>
</g>
</g>
</svg>
